<svg width="265" height="55" viewBox="0 0 265 55" fill="none" xmlns="http://www.w3.org/2000/svg">
<path d="M52.3523 33.3258C51.5703 33.3258 50.9016 33.2181 50.3463 33.0028C49.8023 32.7875 49.3886 32.5098 49.1053 32.1698C48.8333 31.8298 48.6973 31.4785 48.6973 31.1158C48.6973 30.7305 48.8106 30.4245 49.0373 30.1978C49.2753 29.9598 49.587 29.8408 49.9723 29.8408C50.063 29.8408 50.1536 29.8521 50.2443 29.8748C50.335 29.8861 50.3973 29.8918 50.4313 29.8918L50.6523 29.9258V32.6458C50.6636 32.6458 50.7826 32.6911 51.0093 32.7818C51.304 32.8611 51.6383 32.9008 52.0123 32.9008C52.6923 32.9008 53.2306 32.6231 53.6273 32.0678C54.024 31.5011 54.2223 30.6171 54.2223 29.4158C54.2223 28.2258 54.0183 27.3645 53.6103 26.8318C53.2023 26.2878 52.613 26.0158 51.8423 26.0158C51.5476 26.0158 51.27 26.0668 51.0093 26.1688C50.7486 26.2708 50.471 26.4068 50.1763 26.5768C49.9383 26.7241 49.7003 26.9055 49.4623 27.1208L49.1223 26.8658L49.8023 21.1708H54.8173C54.8966 20.5588 55.0893 20.0488 55.3953 19.6408C55.52 19.4481 55.6673 19.2781 55.8373 19.1308H56.3473V22.4458H50.1763L49.7173 26.3558C49.876 26.2425 50.1083 26.1178 50.4143 25.9818C51.049 25.7211 51.6383 25.5908 52.1823 25.5908C53.837 25.5908 55.0723 25.9308 55.8883 26.6108C56.7043 27.2795 57.1123 28.2145 57.1123 29.4158C57.1123 30.6398 56.71 31.5975 55.9053 32.2888C55.1006 32.9801 53.9163 33.3258 52.3523 33.3258ZM63.2376 33.3258C61.8096 33.3258 60.6876 32.8158 59.8716 31.7958C59.0556 30.7758 58.6476 29.2175 58.6476 27.1208C58.6476 25.0808 59.0896 23.5395 59.9736 22.4968C60.8689 21.4428 62.0986 20.9158 63.6626 20.9158C64.3313 20.9158 64.9149 21.0291 65.4136 21.2558C65.9236 21.4711 66.3089 21.7488 66.5696 22.0888C66.8416 22.4288 66.9776 22.7745 66.9776 23.1258C66.9776 23.5111 66.8586 23.8228 66.6206 24.0608C66.3939 24.2875 66.0879 24.4008 65.7026 24.4008C65.5439 24.4008 65.3853 24.3895 65.2266 24.3668L65.0226 24.3158V21.5958L64.6996 21.4768C64.4503 21.3861 64.2179 21.3408 64.0026 21.3408C63.4473 21.3408 62.9883 21.4881 62.6256 21.7828C62.2743 22.0775 62.0023 22.6215 61.8096 23.4148C61.6283 24.2081 61.5376 25.3301 61.5376 26.7808C61.6623 26.5881 61.8153 26.4181 61.9966 26.2708C62.4273 25.9308 62.9259 25.7608 63.4926 25.7608C64.3199 25.7608 65.0396 25.9195 65.6516 26.2368C66.2749 26.5428 66.7509 26.9735 67.0796 27.5288C67.4083 28.0841 67.5726 28.7131 67.5726 29.4158C67.5726 30.6285 67.1929 31.5861 66.4336 32.2888C65.6856 32.9801 64.6203 33.3258 63.2376 33.3258ZM63.2376 32.9858C63.4643 32.9858 63.6853 32.8725 63.9006 32.6458C64.1273 32.4191 64.3143 32.0508 64.4616 31.5408C64.6089 31.0308 64.6826 30.3791 64.6826 29.5858C64.6826 28.7925 64.6033 28.1408 64.4446 27.6308C64.2973 27.1208 64.1046 26.7525 63.8666 26.5258C63.6399 26.2991 63.4019 26.1858 63.1526 26.1858C62.6879 26.1858 62.3139 26.4125 62.0306 26.8658C61.7586 27.3191 61.6226 28.0275 61.6226 28.9908C61.6226 30.4301 61.7756 31.4558 62.0816 32.0678C62.3989 32.6798 62.7843 32.9858 63.2376 32.9858ZM75.4842 23.2958V32.3058L76.8442 32.8158V33.0708H73.6142V32.8158L74.9742 32.3058V21.6808L73.7842 21.4258V21.1708H76.0792C76.6686 21.1708 77.1332 21.2955 77.4732 21.5448C77.8246 21.7828 78.1249 22.1398 78.3742 22.6158L82.0802 29.7048L84.9192 22.6158C85.1119 22.1171 85.3726 21.7545 85.7012 21.5278C86.0299 21.2898 86.5342 21.1708 87.2142 21.1708H88.9992V21.4258L87.9792 21.6808V32.5608L88.9992 32.8158V33.0708H84.1542V32.8158L85.1742 32.5608V23.2958L81.1792 33.2408H80.6692L75.4842 23.2958ZM90.3652 32.3058C90.3652 31.6371 90.4956 31.0308 90.7562 30.4868C91.0282 29.9315 91.3569 29.4498 91.7422 29.0418C92.1276 28.6338 92.6319 28.1521 93.2552 27.5968C93.8332 27.0868 94.2866 26.6618 94.6152 26.3218C94.9439 25.9705 95.2216 25.5795 95.4482 25.1488C95.6749 24.7068 95.7882 24.2308 95.7882 23.7208C95.7882 22.9728 95.6069 22.3891 95.2442 21.9698C94.8816 21.5505 94.4112 21.3408 93.8332 21.3408C93.5046 21.3408 93.1702 21.3861 92.8302 21.4768L92.4732 21.5958V24.3158L92.2522 24.3668C92.0709 24.3895 91.9179 24.4008 91.7932 24.4008C91.4079 24.4008 91.0962 24.2875 90.8582 24.0608C90.6316 23.8228 90.5182 23.5111 90.5182 23.1258C90.5182 22.7631 90.6542 22.4118 90.9262 22.0718C91.2096 21.7318 91.6232 21.4541 92.1672 21.2388C92.7226 21.0235 93.3912 20.9158 94.1732 20.9158C95.7032 20.9158 96.8366 21.2218 97.5732 21.8338C98.3099 22.4458 98.6782 23.3015 98.6782 24.4008C98.6782 25.0921 98.4969 25.6871 98.1342 26.1858C97.7829 26.6845 97.3466 27.0981 96.8252 27.4268C96.3152 27.7555 95.6296 28.1295 94.7682 28.5488C94.0429 28.9001 93.4536 29.2118 93.0002 29.4838C92.5582 29.7445 92.1446 30.0618 91.7592 30.4358C91.3852 30.8098 91.1189 31.2348 90.9602 31.7108H97.2502C97.3296 31.0988 97.5222 30.5888 97.8282 30.1808C97.9529 29.9881 98.1002 29.8181 98.2702 29.6708H98.7802V33.0708H90.3652V32.3058Z" fill="white"/>
<path fill-rule="evenodd" clip-rule="evenodd" d="M3.2502 11.3819C3.2502 11.171 3.42843 11 3.6483 11H32.3117C32.5315 11 32.7098 11.171 32.7098 11.3819V39.0042C32.7098 39.2151 32.5315 39.3861 32.3117 39.3861C32.0918 39.3861 31.9136 39.2151 31.9136 39.0042V11.7638H3.6483C3.42843 11.7638 3.2502 11.5928 3.2502 11.3819Z" fill="white" stroke="white" stroke-width="0.5" stroke-linecap="round" stroke-linejoin="round"/>
<path d="M1.12721 17.304L2.7531 15.6781L2.7531 39.437L2.7531 39.562L2.8781 39.562L3.66802 39.562L3.79302 39.562L3.79302 39.437L3.79302 15.6781L5.41891 17.304C5.62197 17.507 5.95119 17.507 6.15424 17.304C6.3573 17.1009 6.3573 16.7717 6.15424 16.5686L3.64073 14.0551C3.43767 13.852 3.10845 13.852 2.90539 14.0551L0.39187 16.5686C0.188812 16.7717 0.188813 17.1009 0.39187 17.304C0.594928 17.507 0.924149 17.507 1.12721 17.304Z" fill="white" stroke="white" stroke-width="0.25"/>
<path d="M25.1263 37.2915L26.7604 38.9171L2.87712 38.9171H2.75212V39.0421V39.8321V39.9571H2.87712L26.7604 39.9571L25.1263 41.5827C24.9221 41.7858 24.9221 42.1154 25.1263 42.3185C25.3301 42.5213 25.6603 42.5213 25.8641 42.3185L28.3907 39.805C28.5949 39.6019 28.5949 39.2723 28.3907 39.0692L25.8641 36.5557C25.6603 36.3529 25.3301 36.3529 25.1263 36.5557C24.9221 36.7588 24.9221 37.0884 25.1263 37.2915Z" fill="white" stroke="white" stroke-width="0.25"/>
<path fill-rule="evenodd" clip-rule="evenodd" d="M14.1625 11.1157C14.3167 11.2699 14.3167 11.52 14.1625 11.6742L9.42296 16.4138C9.26872 16.568 9.01864 16.568 8.8644 16.4138C8.71016 16.2595 8.71016 16.0095 8.8644 15.8552L13.6039 11.1157C13.7582 10.9614 14.0083 10.9614 14.1625 11.1157Z" fill="white" stroke="white" stroke-width="0.5" stroke-linecap="round" stroke-linejoin="round"/>
<path fill-rule="evenodd" clip-rule="evenodd" d="M32.4624 29.9423C32.6167 30.0965 32.6167 30.3466 32.4624 30.5008L28.1178 34.8454C27.9636 34.9996 27.7135 34.9996 27.5593 34.8454C27.405 34.6912 27.405 34.4411 27.5593 34.2868L31.9039 29.9423C32.0581 29.788 32.3082 29.788 32.4624 29.9423Z" fill="white" stroke="white" stroke-width="0.5" stroke-linecap="round" stroke-linejoin="round"/>
<path fill-rule="evenodd" clip-rule="evenodd" d="M20.0851 11.1139C20.2403 11.2672 20.2419 11.5172 20.0887 11.6725L9.81966 22.0731C9.6664 22.2283 9.41633 22.2299 9.26111 22.0767C9.10589 21.9234 9.1043 21.6733 9.25755 21.5181L19.5265 11.1175C19.6798 10.9622 19.9299 10.9607 20.0851 11.1139Z" fill="white" stroke="white" stroke-width="0.5" stroke-linecap="round" stroke-linejoin="round"/>
<path fill-rule="evenodd" clip-rule="evenodd" d="M32.594 23.3589C32.7482 23.5132 32.7482 23.7632 32.594 23.9175L22.5883 33.9232C22.434 34.0774 22.184 34.0774 22.0297 33.9232C21.8755 33.7689 21.8755 33.5188 22.0297 33.3646L32.0354 23.3589C32.1897 23.2047 32.4397 23.2047 32.594 23.3589Z" fill="white" stroke="white" stroke-width="0.5" stroke-linecap="round" stroke-linejoin="round"/>
<path fill-rule="evenodd" clip-rule="evenodd" d="M26.4085 11.2492C26.5615 11.4046 26.5595 11.6547 26.404 11.8077L9.94731 28.0011C9.79183 28.1541 9.54176 28.1521 9.38877 27.9966C9.23577 27.8411 9.23779 27.5911 9.39327 27.4381L25.85 11.2447C26.0055 11.0917 26.2555 11.0937 26.4085 11.2492Z" fill="white" stroke="white" stroke-width="0.5" stroke-linecap="round" stroke-linejoin="round"/>
<path fill-rule="evenodd" clip-rule="evenodd" d="M32.5941 17.1715C32.7483 17.3257 32.7483 17.5758 32.5941 17.73L16.0057 34.3184C15.8515 34.4726 15.6014 34.4726 15.4472 34.3184C15.2929 34.1642 15.2929 33.9141 15.4472 33.7598L32.0355 17.1715C32.1898 17.0172 32.4399 17.0172 32.5941 17.1715Z" fill="white" stroke="white" stroke-width="0.5" stroke-linecap="round" stroke-linejoin="round"/>
<path fill-rule="evenodd" clip-rule="evenodd" d="M32.3308 11.2469C32.485 11.4011 32.485 11.6512 32.3308 11.8055L9.68636 34.4499C9.53211 34.6042 9.28204 34.6042 9.1278 34.4499C8.97355 34.2957 8.97355 34.0456 9.1278 33.8913L31.7722 11.2469C31.9265 11.0927 32.1766 11.0927 32.3308 11.2469Z" fill="white" stroke="white" stroke-width="0.5" stroke-linecap="round" stroke-linejoin="round"/>
<path d="M188.166 33.3946C186.738 33.3946 185.655 33.1113 184.919 32.5446C184.193 31.978 183.831 31.2413 183.831 30.3346C183.831 29.7113 184.103 29.1106 184.647 28.5326C185.191 27.9433 185.854 27.524 186.636 27.2746C185.888 26.8553 185.315 26.3963 184.919 25.8976C184.533 25.3876 184.341 24.77 184.341 24.0446C184.341 23.138 184.703 22.4013 185.429 21.8346C186.165 21.268 187.248 20.9846 188.676 20.9846C189.39 20.9846 190.013 21.115 190.546 21.3756C191.09 21.6363 191.509 21.9763 191.804 22.3956C192.098 22.815 192.246 23.2513 192.246 23.7046C192.246 24.2373 192.013 24.753 191.549 25.2516C191.095 25.7503 190.563 26.0846 189.951 26.2546C190.982 26.708 191.764 27.2463 192.297 27.8696C192.829 28.493 193.096 29.258 193.096 30.1646C193.096 30.754 192.914 31.2923 192.552 31.7796C192.189 32.267 191.639 32.658 190.903 32.9526C190.166 33.2473 189.254 33.3946 188.166 33.3946ZM189.441 25.9146C189.871 25.722 190.217 25.4443 190.478 25.0816C190.75 24.719 190.886 24.26 190.886 23.7046C190.886 23.2966 190.784 22.917 190.58 22.5656C190.387 22.2143 190.132 21.9366 189.815 21.7326C189.509 21.5173 189.186 21.4096 188.846 21.4096C188.358 21.4096 187.95 21.6023 187.622 21.9876C187.304 22.3616 187.146 22.8773 187.146 23.5346C187.146 24.4413 187.911 25.2346 189.441 25.9146ZM187.996 32.9696C188.721 32.9696 189.282 32.7713 189.679 32.3746C190.087 31.9666 190.291 31.4 190.291 30.6746C190.291 30.1306 190.019 29.581 189.475 29.0256C188.931 28.4703 188.211 28 187.316 27.6146C186.681 27.8413 186.182 28.1813 185.82 28.6346C185.457 29.0766 185.276 29.6433 185.276 30.3346C185.276 30.8106 185.395 31.2526 185.633 31.6606C185.882 32.0573 186.211 32.3746 186.619 32.6126C187.038 32.8506 187.497 32.9696 187.996 32.9696ZM198.717 33.3946C197.289 33.3946 196.167 32.8846 195.351 31.8646C194.535 30.8446 194.127 29.2863 194.127 27.1896C194.127 25.1496 194.569 23.6083 195.453 22.5656C196.349 21.5116 197.578 20.9846 199.142 20.9846C199.811 20.9846 200.395 21.098 200.893 21.3246C201.403 21.54 201.789 21.8176 202.049 22.1576C202.321 22.4976 202.457 22.8433 202.457 23.1946C202.457 23.58 202.338 23.8916 202.1 24.1296C201.874 24.3563 201.568 24.4696 201.182 24.4696C201.024 24.4696 200.865 24.4583 200.706 24.4356L200.502 24.3846V21.6646L200.179 21.5456C199.93 21.455 199.698 21.4096 199.482 21.4096C198.927 21.4096 198.468 21.557 198.105 21.8516C197.754 22.1463 197.482 22.6903 197.289 23.4836C197.108 24.277 197.017 25.399 197.017 26.8496C197.142 26.657 197.295 26.487 197.476 26.3396C197.907 25.9996 198.406 25.8296 198.972 25.8296C199.8 25.8296 200.519 25.9883 201.131 26.3056C201.755 26.6116 202.231 27.0423 202.559 27.5976C202.888 28.153 203.052 28.782 203.052 29.4846C203.052 30.6973 202.673 31.655 201.913 32.3576C201.165 33.049 200.1 33.3946 198.717 33.3946ZM198.717 33.0546C198.944 33.0546 199.165 32.9413 199.38 32.7146C199.607 32.488 199.794 32.1196 199.941 31.6096C200.089 31.0996 200.162 30.448 200.162 29.6546C200.162 28.8613 200.083 28.2096 199.924 27.6996C199.777 27.1896 199.584 26.8213 199.346 26.5946C199.12 26.368 198.882 26.2546 198.632 26.2546C198.168 26.2546 197.794 26.4813 197.51 26.9346C197.238 27.388 197.102 28.0963 197.102 29.0596C197.102 30.499 197.255 31.5246 197.561 32.1366C197.879 32.7486 198.264 33.0546 198.717 33.0546ZM209.434 32.8846L210.454 32.6296V21.7496L209.434 21.4946V21.2396H213.769C215.798 21.2396 217.35 21.761 218.427 22.8036C219.515 23.8463 220.059 25.3083 220.059 27.1896C220.059 29.071 219.515 30.533 218.427 31.5756C217.35 32.6183 215.798 33.1396 213.769 33.1396H209.434V32.8846ZM213.769 32.7146C214.823 32.7146 215.639 32.2896 216.217 31.4396C216.795 30.5783 217.084 29.1616 217.084 27.1896C217.084 25.2176 216.795 23.8066 216.217 22.9566C215.639 22.0953 214.823 21.6646 213.769 21.6646H213.259V32.7146H213.769ZM219.882 32.8846L221.242 32.3746L225.917 21.0696H226.427L231.272 32.6296L232.122 32.8846V33.1396H230.082C229.492 33.1396 229.011 33.0093 228.637 32.7486C228.263 32.4766 227.985 32.1253 227.804 31.6946L226.937 29.6546H222.874L221.752 32.3746L223.027 32.8846V33.1396H219.882V32.8846ZM223.044 29.2296H226.767L224.897 24.7586L223.044 29.2296ZM233.896 32.8846L234.916 32.6296V28.7196L231.431 21.7496L230.581 21.4946V21.2396H232.706C233.296 21.2396 233.766 21.3643 234.117 21.6136C234.48 21.863 234.775 22.22 235.001 22.6846L237.517 27.6996L240.101 22.0046L238.826 21.4946V21.2396H242.056V21.4946L240.696 22.0046L237.721 28.5496V32.6296L238.741 32.8846V33.1396H233.896V32.8846ZM246.387 33.3946C245.583 33.3946 244.829 33.2133 244.126 32.8506C243.809 32.692 243.543 32.505 243.327 32.2896C243.169 32.5503 242.97 32.7826 242.732 32.9866C242.528 33.134 242.415 33.2133 242.392 33.2246H241.967V29.9946H242.647C242.817 30.55 243.055 31.0486 243.361 31.4906C244.053 32.4766 244.948 32.9696 246.047 32.9696C246.693 32.9696 247.209 32.777 247.594 32.3916C247.98 32.0063 248.172 31.4906 248.172 30.8446C248.172 30.4706 248.059 30.1363 247.832 29.8416C247.617 29.547 247.345 29.2863 247.016 29.0596C246.688 28.833 246.229 28.5496 245.639 28.2096C244.891 27.7903 244.285 27.4106 243.82 27.0706C243.356 26.7306 242.959 26.3056 242.63 25.7956C242.302 25.2743 242.137 24.6623 242.137 23.9596C242.137 23.4043 242.29 22.9056 242.596 22.4636C242.914 22.0103 243.384 21.6533 244.007 21.3926C244.631 21.1206 245.396 20.9846 246.302 20.9846C246.96 20.9846 247.617 21.1716 248.274 21.5456C248.524 21.6816 248.773 21.863 249.022 22.0896C249.215 21.795 249.413 21.5626 249.617 21.3926C249.821 21.2453 249.935 21.166 249.957 21.1546H250.382V24.3846H249.702C249.555 23.8406 249.334 23.3476 249.039 22.9056C248.767 22.475 248.427 22.118 248.019 21.8346C247.623 21.5513 247.164 21.4096 246.642 21.4096C246.2 21.4096 245.821 21.5853 245.503 21.9366C245.186 22.288 245.027 22.7356 245.027 23.2796C245.027 23.699 245.146 24.0786 245.384 24.4186C245.634 24.7473 245.934 25.0363 246.285 25.2856C246.648 25.535 247.135 25.8353 247.747 26.1866C248.461 26.5946 249.039 26.9573 249.481 27.2746C249.923 27.592 250.297 27.9886 250.603 28.4646C250.909 28.9293 251.062 29.4676 251.062 30.0796C251.062 30.6916 250.887 31.2526 250.535 31.7626C250.184 32.2613 249.657 32.658 248.954 32.9526C248.252 33.2473 247.396 33.3946 246.387 33.3946Z" fill="white"/>
<path d="M118.09 54.035L118.09 0" stroke="white" stroke-width="0.75"/>
<path d="M159.6 13.1997C159.337 11.9464 158.196 11 156.831 11C156.519 11 156.266 11.2458 156.266 11.5499C156.266 11.854 156.519 12.0998 156.831 12.0998C157.766 12.0998 158.527 12.84 158.527 13.7496C158.527 14.6591 157.766 15.3993 156.831 15.3993C156.519 15.3993 156.266 15.6451 156.266 15.9492C156.266 16.2533 156.519 16.4992 156.831 16.4992C158.196 16.4992 159.337 15.5528 159.6 14.2995H167.005V19.2487H136.484V14.2995H144.397H146.093C146.405 14.2995 146.658 14.0537 146.658 13.7496C146.658 13.4455 146.405 13.1997 146.093 13.1997H145.066C145.3 12.5607 145.922 12.0998 146.658 12.0998C147.593 12.0998 148.353 12.84 148.353 13.7496C148.353 14.6591 147.593 15.3993 146.658 15.3993C146.346 15.3993 146.093 15.6451 146.093 15.9492C146.093 16.2533 146.346 16.4992 146.658 16.4992C148.216 16.4992 149.484 15.2657 149.484 13.7496C149.484 12.2335 148.216 11 146.658 11C145.294 11 144.152 11.9464 143.889 13.1997H135.354V20.3486V42.3452H168.135V20.3486V13.1997H159.6ZM167.005 41.2454H136.484V20.3486H167.005V41.2454Z" fill="white"/>
<path d="M150.049 12.0998C150.984 12.0998 151.745 12.84 151.745 13.7496C151.745 14.6591 150.984 15.3993 150.049 15.3993C149.737 15.3993 149.484 15.6451 149.484 15.9492C149.484 16.2533 149.737 16.4992 150.049 16.4992C151.607 16.4992 152.875 15.2657 152.875 13.7496C152.875 12.2335 151.607 11 150.049 11C149.737 11 149.484 11.2458 149.484 11.5499C149.484 11.854 149.737 12.0998 150.049 12.0998Z" fill="white"/>
<path d="M153.44 12.0998C154.375 12.0998 155.136 12.84 155.136 13.7496C155.136 14.6591 154.375 15.3993 153.44 15.3993C153.128 15.3993 152.875 15.6451 152.875 15.9492C152.875 16.2533 153.128 16.4992 153.44 16.4992C154.998 16.4992 156.266 15.2657 156.266 13.7496C156.266 12.2335 154.998 11 153.44 11C153.128 11 152.875 11.2458 152.875 11.5499C152.875 11.854 153.128 12.0998 153.44 12.0998Z" fill="white"/>
<path d="M140.441 24.7475H152.875C153.187 24.7475 153.44 24.5017 153.44 24.1976C153.44 23.8935 153.187 23.6477 152.875 23.6477H140.441C140.129 23.6477 139.876 23.8935 139.876 24.1976C139.876 24.5017 140.129 24.7475 140.441 24.7475Z" fill="white"/>
<path d="M163.048 32.4466H154.571C154.259 32.4466 154.005 32.6925 154.005 32.9966C154.005 33.3007 154.259 33.5465 154.571 33.5465H163.048C163.36 33.5465 163.614 33.3007 163.614 32.9966C163.614 32.6925 163.36 32.4466 163.048 32.4466Z" fill="white"/>
<path d="M140.441 29.1477H146.093C146.405 29.1477 146.658 28.9018 146.658 28.5977C146.658 28.2936 146.405 28.0478 146.093 28.0478H140.441C140.129 28.0478 139.876 28.2936 139.876 28.5977C139.876 28.9018 140.129 29.1477 140.441 29.1477Z" fill="white"/>
<path d="M163.048 36.8464H157.397C157.085 36.8464 156.831 37.0922 156.831 37.3963C156.831 37.7004 157.085 37.9462 157.397 37.9462H163.048C163.36 37.9462 163.614 37.7004 163.614 37.3963C163.614 37.0922 163.36 36.8464 163.048 36.8464Z" fill="white"/>
<path d="M151.179 28.5977C151.179 28.9018 151.433 29.1477 151.745 29.1477H160.223C160.535 29.1477 160.788 28.9018 160.788 28.5977C160.788 28.2936 160.535 28.0478 160.223 28.0478H151.745C151.433 28.0478 151.179 28.2936 151.179 28.5977Z" fill="white"/>
<path d="M149.32 28.988C149.422 28.8835 149.484 28.7405 149.484 28.5976C149.484 28.454 149.422 28.311 149.32 28.2071C149.111 28.0036 148.727 28.0036 148.517 28.2071C148.416 28.311 148.353 28.454 148.353 28.5976C148.353 28.7405 148.416 28.8835 148.517 28.988C148.625 29.0919 148.772 29.1475 148.919 29.1475C149.066 29.1475 149.213 29.0919 149.32 28.988Z" fill="white"/>
<path d="M142.702 32.9966C142.702 33.3007 142.955 33.5465 143.267 33.5465H151.745C152.057 33.5465 152.31 33.3007 152.31 32.9966C152.31 32.6925 152.057 32.4466 151.745 32.4466H143.267C142.955 32.4466 142.702 32.6925 142.702 32.9966Z" fill="white"/>
<path d="M140.441 33.5465C140.588 33.5465 140.735 33.486 140.842 33.387C140.944 33.2825 141.006 33.1396 141.006 32.9966C141.006 32.8531 140.944 32.7101 140.842 32.6116C140.633 32.4027 140.249 32.4027 140.04 32.6061C139.938 32.7101 139.876 32.8531 139.876 32.9966C139.876 33.1396 139.938 33.2825 140.04 33.387C140.147 33.486 140.288 33.5465 140.441 33.5465Z" fill="white"/>
<path d="M163.048 29.1475C163.195 29.1475 163.342 29.0919 163.45 28.988C163.557 28.8835 163.614 28.7405 163.614 28.5976C163.614 28.454 163.557 28.311 163.45 28.2071C163.235 28.0036 162.856 28.0036 162.647 28.2071C162.545 28.311 162.483 28.454 162.483 28.5976C162.483 28.7405 162.545 28.8835 162.647 28.988C162.755 29.0919 162.902 29.1475 163.048 29.1475Z" fill="white"/>
<path d="M154.571 36.8464H140.441C140.129 36.8464 139.876 37.0922 139.876 37.3963C139.876 37.7004 140.129 37.9462 140.441 37.9462H154.571C154.883 37.9462 155.136 37.7004 155.136 37.3963C155.136 37.0922 154.883 36.8464 154.571 36.8464Z" fill="white"/>
</svg>
