<svg width="270" height="55" viewBox="0 0 270 55" fill="none" xmlns="http://www.w3.org/2000/svg">
<path d="M52.7772 33.3258C52.1086 33.3258 51.5192 33.2181 51.0092 33.0028C50.5106 32.7761 50.1252 32.4928 49.8532 32.1528C49.5926 31.8128 49.4622 31.4671 49.4622 31.1158C49.4622 30.7305 49.5756 30.4245 49.8022 30.1978C50.0402 29.9598 50.3519 29.8408 50.7372 29.8408C50.8279 29.8408 50.9186 29.8521 51.0092 29.8748C51.0999 29.8861 51.1622 29.8918 51.1962 29.8918L51.4172 29.9258V32.6458L51.7402 32.7818C51.9442 32.8611 52.1766 32.9008 52.4372 32.9008C52.9926 32.9008 53.4459 32.7535 53.7972 32.4588C54.1486 32.1641 54.4206 31.6201 54.6132 30.8268C54.8059 30.0335 54.9022 28.9115 54.9022 27.4608C54.8002 27.6308 54.6416 27.8008 54.4262 27.9708C53.9956 28.3108 53.5026 28.4808 52.9472 28.4808C52.1199 28.4808 51.3946 28.3278 50.7712 28.0218C50.1592 27.7045 49.6889 27.2681 49.3602 26.7128C49.0316 26.1575 48.8672 25.5285 48.8672 24.8258C48.8672 23.6131 49.2412 22.6611 49.9892 21.9698C50.7486 21.2671 51.8196 20.9158 53.2022 20.9158C54.6302 20.9158 55.7522 21.4258 56.5682 22.4458C57.3842 23.4658 57.7922 25.0241 57.7922 27.1208C57.7922 29.1608 57.3446 30.7078 56.4492 31.7618C55.5652 32.8045 54.3412 33.3258 52.7772 33.3258ZM53.2872 28.0558C53.7519 28.0558 54.1202 27.8291 54.3922 27.3758C54.6756 26.9225 54.8172 26.2141 54.8172 25.2508C54.8172 23.8115 54.6586 22.7858 54.3412 22.1738C54.0352 21.5618 53.6556 21.2558 53.2022 21.2558C52.9756 21.2558 52.7489 21.3691 52.5222 21.5958C52.3069 21.8225 52.1256 22.1908 51.9782 22.7008C51.8309 23.2108 51.7572 23.8625 51.7572 24.6558C51.7572 25.4491 51.8309 26.1008 51.9782 26.6108C52.1369 27.1208 52.3296 27.4891 52.5562 27.7158C52.7942 27.9425 53.0379 28.0558 53.2872 28.0558ZM64.3392 33.3258C63.4212 33.3258 62.5882 33.0821 61.8402 32.5948C61.0922 32.1075 60.4972 31.3991 60.0552 30.4698C59.6246 29.5291 59.4092 28.4128 59.4092 27.1208C59.4092 25.8288 59.6246 24.7181 60.0552 23.7888C60.4972 22.8481 61.0922 22.1341 61.8402 21.6468C62.5882 21.1595 63.4212 20.9158 64.3392 20.9158C65.2572 20.9158 66.0902 21.1595 66.8382 21.6468C67.5862 22.1341 68.1756 22.8481 68.6062 23.7888C69.0482 24.7181 69.2692 25.8288 69.2692 27.1208C69.2692 28.4128 69.0482 29.5291 68.6062 30.4698C68.1756 31.3991 67.5862 32.1075 66.8382 32.5948C66.0902 33.0821 65.2572 33.3258 64.3392 33.3258ZM64.3392 32.9858C65.6426 32.9858 66.2942 31.0308 66.2942 27.1208C66.2942 23.2108 65.6426 21.2558 64.3392 21.2558C63.0359 21.2558 62.3842 23.2108 62.3842 27.1208C62.3842 31.0308 63.0359 32.9858 64.3392 32.9858ZM77.1775 23.2958V32.3058L78.5375 32.8158V33.0708H75.3075V32.8158L76.6675 32.3058V21.6808L75.4775 21.4258V21.1708H77.7725C78.3619 21.1708 78.8265 21.2955 79.1665 21.5448C79.5179 21.7828 79.8182 22.1398 80.0675 22.6158L83.7735 29.7048L86.6125 22.6158C86.8052 22.1171 87.0659 21.7545 87.3945 21.5278C87.7232 21.2898 88.2275 21.1708 88.9075 21.1708H90.6925V21.4258L89.6725 21.6808V32.5608L90.6925 32.8158V33.0708H85.8475V32.8158L86.8675 32.5608V23.2958L82.8725 33.2408H82.3625L77.1775 23.2958ZM92.0585 32.3058C92.0585 31.6371 92.1889 31.0308 92.4495 30.4868C92.7215 29.9315 93.0502 29.4498 93.4355 29.0418C93.8209 28.6338 94.3252 28.1521 94.9485 27.5968C95.5265 27.0868 95.9799 26.6618 96.3085 26.3218C96.6372 25.9705 96.9149 25.5795 97.1415 25.1488C97.3682 24.7068 97.4815 24.2308 97.4815 23.7208C97.4815 22.9728 97.3002 22.3891 96.9375 21.9698C96.5749 21.5505 96.1045 21.3408 95.5265 21.3408C95.1979 21.3408 94.8635 21.3861 94.5235 21.4768L94.1665 21.5958V24.3158L93.9455 24.3668C93.7642 24.3895 93.6112 24.4008 93.4865 24.4008C93.1012 24.4008 92.7895 24.2875 92.5515 24.0608C92.3249 23.8228 92.2115 23.5111 92.2115 23.1258C92.2115 22.7631 92.3475 22.4118 92.6195 22.0718C92.9029 21.7318 93.3165 21.4541 93.8605 21.2388C94.4159 21.0235 95.0845 20.9158 95.8665 20.9158C97.3965 20.9158 98.5299 21.2218 99.2665 21.8338C100.003 22.4458 100.372 23.3015 100.372 24.4008C100.372 25.0921 100.19 25.6871 99.8275 26.1858C99.4762 26.6845 99.0399 27.0981 98.5185 27.4268C98.0085 27.7555 97.3229 28.1295 96.4615 28.5488C95.7362 28.9001 95.1469 29.2118 94.6935 29.4838C94.2515 29.7445 93.8379 30.0618 93.4525 30.4358C93.0785 30.8098 92.8122 31.2348 92.6535 31.7108H98.9435C99.0229 31.0988 99.2155 30.5888 99.5215 30.1808C99.6462 29.9881 99.7935 29.8181 99.9635 29.6708H100.474V33.0708H92.0585V32.3058Z" fill="white"/>
<path fill-rule="evenodd" clip-rule="evenodd" d="M3.25023 11.3819C3.25023 11.171 3.42846 11 3.64833 11H32.3115C32.5313 11 32.7096 11.171 32.7096 11.3819V39.004C32.7096 39.2149 32.5313 39.3858 32.3115 39.3858C32.0916 39.3858 31.9134 39.2149 31.9134 39.004V11.7637H3.64833C3.42846 11.7637 3.25023 11.5928 3.25023 11.3819Z" fill="white" stroke="white" stroke-width="0.5"/>
<path d="M1.12723 17.304L2.75311 15.6782L2.75311 39.4369L2.75311 39.5619L2.87811 39.5619L3.66802 39.5619L3.79302 39.5619L3.79302 39.4369L3.79302 15.6782L5.4189 17.304C5.62195 17.5071 5.95117 17.5071 6.15423 17.304C6.35728 17.101 6.35728 16.7718 6.15423 16.5687L3.64073 14.0552C3.43767 13.8521 3.10845 13.8521 2.9054 14.0552L0.3919 16.5687C0.188843 16.7718 0.188844 17.101 0.3919 17.304L0.3919 17.304C0.594957 17.5071 0.924175 17.5071 1.12723 17.304Z" fill="white" stroke="white" stroke-width="0.25"/>
<path d="M25.1261 37.2914L26.7602 38.917L2.87711 38.917H2.75211V39.042V39.8319V39.9569H2.87711L26.7602 39.9569L25.1261 41.5826C24.922 41.7857 24.922 42.1153 25.1261 42.3184C25.3299 42.5211 25.6601 42.5211 25.8639 42.3184L28.3905 39.8049C28.5947 39.6018 28.5947 39.2722 28.3905 39.0691L25.8639 36.5556C25.6601 36.3528 25.3299 36.3528 25.1261 36.5556C24.922 36.7587 24.922 37.0883 25.1261 37.2914Z" fill="white" stroke="white" stroke-width="0.25"/>
<path fill-rule="evenodd" clip-rule="evenodd" d="M14.1624 11.1157C14.3167 11.2699 14.3167 11.52 14.1624 11.6742L9.42294 16.4137C9.2687 16.568 9.01862 16.568 8.86438 16.4137C8.71014 16.2595 8.71014 16.0094 8.86438 15.8552L13.6039 11.1157C13.7581 10.9614 14.0082 10.9614 14.1624 11.1157Z" fill="white" stroke="white" stroke-width="0.5" stroke-linecap="round" stroke-linejoin="round"/>
<path fill-rule="evenodd" clip-rule="evenodd" d="M32.4622 29.942C32.6164 30.0962 32.6164 30.3463 32.4622 30.5005L28.1177 34.8451C27.9634 34.9993 27.7133 34.9993 27.5591 34.8451C27.4049 34.6908 27.4049 34.4408 27.5591 34.2865L31.9036 29.942C32.0579 29.7877 32.308 29.7877 32.4622 29.942Z" fill="white" stroke="white" stroke-width="0.5" stroke-linecap="round" stroke-linejoin="round"/>
<path fill-rule="evenodd" clip-rule="evenodd" d="M20.085 11.1139C20.2402 11.2672 20.2418 11.5172 20.0886 11.6725L9.81965 22.073C9.66639 22.2282 9.41632 22.2298 9.2611 22.0766C9.10588 21.9233 9.10429 21.6732 9.25755 21.518L19.5265 11.1175C19.6797 10.9622 19.9298 10.9607 20.085 11.1139Z" fill="white" stroke="white" stroke-width="0.5" stroke-linecap="round" stroke-linejoin="round"/>
<path fill-rule="evenodd" clip-rule="evenodd" d="M32.5938 23.3589C32.748 23.5131 32.748 23.7632 32.5938 23.9175L22.5882 33.9231C22.434 34.0773 22.1839 34.0773 22.0296 33.9231C21.8754 33.7688 21.8754 33.5188 22.0296 33.3645L32.0352 23.3589C32.1895 23.2047 32.4396 23.2047 32.5938 23.3589Z" fill="white" stroke="white" stroke-width="0.5" stroke-linecap="round" stroke-linejoin="round"/>
<path fill-rule="evenodd" clip-rule="evenodd" d="M26.4084 11.249C26.5614 11.4045 26.5593 11.6545 26.4039 11.8075L9.94728 28.0008C9.7918 28.1538 9.54174 28.1518 9.38874 27.9963C9.23575 27.8408 9.23777 27.5908 9.39325 27.4378L25.8498 11.2445C26.0053 11.0915 26.2554 11.0935 26.4084 11.249Z" fill="white" stroke="white" stroke-width="0.5" stroke-linecap="round" stroke-linejoin="round"/>
<path fill-rule="evenodd" clip-rule="evenodd" d="M32.5939 17.1715C32.7481 17.3258 32.7481 17.5758 32.5939 17.7301L16.0056 34.3183C15.8514 34.4725 15.6013 34.4725 15.4471 34.3183C15.2928 34.1641 15.2928 33.914 15.4471 33.7598L32.0353 17.1715C32.1896 17.0173 32.4396 17.0173 32.5939 17.1715Z" fill="white" stroke="white" stroke-width="0.5" stroke-linecap="round" stroke-linejoin="round"/>
<path fill-rule="evenodd" clip-rule="evenodd" d="M32.3306 11.2467C32.4848 11.401 32.4848 11.6511 32.3306 11.8053L9.68631 34.4496C9.53207 34.6038 9.282 34.6038 9.12776 34.4496C8.97352 34.2953 8.97352 34.0452 9.12776 33.891L31.772 11.2467C31.9263 11.0925 32.1763 11.0925 32.3306 11.2467Z" fill="white" stroke="white" stroke-width="0.5" stroke-linecap="round" stroke-linejoin="round"/>
<path d="M183.409 33.0708V32.8158L184.599 32.4758V23.1428L182.814 24.4008L182.474 23.9758L185.568 21.1708H187.404V32.4758L188.594 32.8158V33.0708H183.409ZM189.785 32.3058C189.785 31.6371 189.915 31.0308 190.176 30.4868C190.448 29.9315 190.776 29.4498 191.162 29.0418C191.547 28.6338 192.051 28.1521 192.675 27.5968C193.253 27.0868 193.706 26.6618 194.035 26.3218C194.363 25.9705 194.641 25.5795 194.868 25.1488C195.094 24.7068 195.208 24.2308 195.208 23.7208C195.208 22.9728 195.026 22.3891 194.664 21.9698C194.301 21.5505 193.831 21.3408 193.253 21.3408C192.924 21.3408 192.59 21.3861 192.25 21.4768L191.893 21.5958V24.3158L191.672 24.3668C191.49 24.3895 191.337 24.4008 191.213 24.4008C190.827 24.4008 190.516 24.2875 190.278 24.0608C190.051 23.8228 189.938 23.5111 189.938 23.1258C189.938 22.7631 190.074 22.4118 190.346 22.0718C190.629 21.7318 191.043 21.4541 191.587 21.2388C192.142 21.0235 192.811 20.9158 193.593 20.9158C195.123 20.9158 196.256 21.2218 196.993 21.8338C197.729 22.4458 198.098 23.3015 198.098 24.4008C198.098 25.0921 197.916 25.6871 197.554 26.1858C197.202 26.6845 196.766 27.0981 196.245 27.4268C195.735 27.7555 195.049 28.1295 194.188 28.5488C193.462 28.9001 192.873 29.2118 192.42 29.4838C191.978 29.7445 191.564 30.0618 191.179 30.4358C190.805 30.8098 190.538 31.2348 190.38 31.7108H196.67C196.749 31.0988 196.942 30.5888 197.248 30.1808C197.372 29.9881 197.52 29.8181 197.69 29.6708H198.2V33.0708H189.785V32.3058ZM204.068 33.3258C202.64 33.3258 201.558 33.0425 200.821 32.4758C200.096 31.9091 199.733 31.1725 199.733 30.2658C199.733 29.6425 200.005 29.0418 200.549 28.4638C201.093 27.8745 201.756 27.4551 202.538 27.2058C201.79 26.7865 201.218 26.3275 200.821 25.8288C200.436 25.3188 200.243 24.7011 200.243 23.9758C200.243 23.0691 200.606 22.3325 201.331 21.7658C202.068 21.1991 203.15 20.9158 204.578 20.9158C205.292 20.9158 205.915 21.0461 206.448 21.3068C206.992 21.5675 207.411 21.9075 207.706 22.3268C208.001 22.7461 208.148 23.1825 208.148 23.6358C208.148 24.1685 207.916 24.6841 207.451 25.1828C206.998 25.6815 206.465 26.0158 205.853 26.1858C206.884 26.6391 207.666 27.1775 208.199 27.8008C208.732 28.4241 208.998 29.1891 208.998 30.0958C208.998 30.6851 208.817 31.2235 208.454 31.7108C208.091 32.1981 207.542 32.5891 206.805 32.8838C206.068 33.1785 205.156 33.3258 204.068 33.3258ZM205.343 25.8458C205.774 25.6531 206.119 25.3755 206.38 25.0128C206.652 24.6501 206.788 24.1911 206.788 23.6358C206.788 23.2278 206.686 22.8481 206.482 22.4968C206.289 22.1455 206.034 21.8678 205.717 21.6638C205.411 21.4485 205.088 21.3408 204.748 21.3408C204.261 21.3408 203.853 21.5335 203.524 21.9188C203.207 22.2928 203.048 22.8085 203.048 23.4658C203.048 24.3725 203.813 25.1658 205.343 25.8458ZM203.898 32.9008C204.623 32.9008 205.184 32.7025 205.581 32.3058C205.989 31.8978 206.193 31.3311 206.193 30.6058C206.193 30.0618 205.921 29.5121 205.377 28.9568C204.833 28.4015 204.113 27.9311 203.218 27.5458C202.583 27.7725 202.085 28.1125 201.722 28.5658C201.359 29.0078 201.178 29.5745 201.178 30.2658C201.178 30.7418 201.297 31.1838 201.535 31.5918C201.784 31.9885 202.113 32.3058 202.521 32.5438C202.94 32.7818 203.399 32.9008 203.898 32.9008ZM215.127 32.8158L216.147 32.5608V21.6808L215.127 21.4258V21.1708H219.462C221.49 21.1708 223.043 21.6921 224.12 22.7348C225.208 23.7775 225.752 25.2395 225.752 27.1208C225.752 29.0021 225.208 30.4641 224.12 31.5068C223.043 32.5495 221.49 33.0708 219.462 33.0708H215.127V32.8158ZM219.462 32.6458C220.516 32.6458 221.332 32.2208 221.91 31.3708C222.488 30.5095 222.777 29.0928 222.777 27.1208C222.777 25.1488 222.488 23.7378 221.91 22.8878C221.332 22.0265 220.516 21.5958 219.462 21.5958H218.952V32.6458H219.462ZM225.574 32.8158L226.934 32.3058L231.609 21.0008H232.119L236.964 32.5608L237.814 32.8158V33.0708H235.774C235.185 33.0708 234.703 32.9405 234.329 32.6798C233.955 32.4078 233.678 32.0565 233.496 31.6258L232.629 29.5858H228.566L227.444 32.3058L228.719 32.8158V33.0708H225.574V32.8158ZM228.736 29.1608H232.459L230.589 24.6898L228.736 29.1608ZM239.589 32.8158L240.609 32.5608V28.6508L237.124 21.6808L236.274 21.4258V21.1708H238.399C238.988 21.1708 239.458 21.2955 239.81 21.5448C240.172 21.7941 240.467 22.1511 240.694 22.6158L243.21 27.6308L245.794 21.9358L244.519 21.4258V21.1708H247.749V21.4258L246.389 21.9358L243.414 28.4808V32.5608L244.434 32.8158V33.0708H239.589V32.8158ZM252.08 33.3258C251.275 33.3258 250.521 33.1445 249.819 32.7818C249.501 32.6231 249.235 32.4361 249.02 32.2208C248.861 32.4815 248.663 32.7138 248.425 32.9178C248.221 33.0651 248.107 33.1445 248.085 33.1558H247.66V29.9258H248.34C248.51 30.4811 248.748 30.9798 249.054 31.4218C249.745 32.4078 250.64 32.9008 251.74 32.9008C252.386 32.9008 252.901 32.7081 253.287 32.3228C253.672 31.9375 253.865 31.4218 253.865 30.7758C253.865 30.4018 253.751 30.0675 253.525 29.7728C253.309 29.4781 253.037 29.2175 252.709 28.9908C252.38 28.7641 251.921 28.4808 251.332 28.1408C250.584 27.7215 249.977 27.3418 249.513 27.0018C249.048 26.6618 248.651 26.2368 248.323 25.7268C247.994 25.2055 247.83 24.5935 247.83 23.8908C247.83 23.3355 247.983 22.8368 248.289 22.3948C248.606 21.9415 249.076 21.5845 249.7 21.3238C250.323 21.0518 251.088 20.9158 251.995 20.9158C252.652 20.9158 253.309 21.1028 253.967 21.4768C254.216 21.6128 254.465 21.7941 254.715 22.0208C254.907 21.7261 255.106 21.4938 255.31 21.3238C255.514 21.1765 255.627 21.0971 255.65 21.0858H256.075V24.3158H255.395C255.247 23.7718 255.026 23.2788 254.732 22.8368C254.46 22.4061 254.12 22.0491 253.712 21.7658C253.315 21.4825 252.856 21.3408 252.335 21.3408C251.893 21.3408 251.513 21.5165 251.196 21.8678C250.878 22.2191 250.72 22.6668 250.72 23.2108C250.72 23.6301 250.839 24.0098 251.077 24.3498C251.326 24.6785 251.626 24.9675 251.978 25.2168C252.34 25.4661 252.828 25.7665 253.44 26.1178C254.154 26.5258 254.732 26.8885 255.174 27.2058C255.616 27.5231 255.99 27.9198 256.296 28.3958C256.602 28.8605 256.755 29.3988 256.755 30.0108C256.755 30.6228 256.579 31.1838 256.228 31.6938C255.876 32.1925 255.349 32.5891 254.647 32.8838C253.944 33.1785 253.088 33.3258 252.08 33.3258Z" fill="white"/>
<path d="M118.09 54.035L118.09 0" stroke="white" stroke-width="0.75"/>
<path d="M159.597 13.1987C159.334 11.946 158.193 11 156.829 11C156.517 11 156.264 11.2457 156.264 11.5497C156.264 11.8536 156.517 12.0993 156.829 12.0993C157.763 12.0993 158.524 12.8392 158.524 13.7484C158.524 14.6575 157.763 15.3974 156.829 15.3974C156.517 15.3974 156.264 15.6431 156.264 15.947C156.264 16.251 156.517 16.4967 156.829 16.4967C158.193 16.4967 159.334 15.5507 159.597 14.298H166.998V19.2451H136.491V14.298H144.4H146.095C146.407 14.298 146.66 14.0523 146.66 13.7484C146.66 13.4444 146.407 13.1987 146.095 13.1987H145.069C145.303 12.56 145.925 12.0993 146.66 12.0993C147.595 12.0993 148.355 12.8392 148.355 13.7484C148.355 14.6575 147.595 15.3974 146.66 15.3974C146.348 15.3974 146.095 15.6431 146.095 15.947C146.095 16.251 146.348 16.4967 146.66 16.4967C148.218 16.4967 149.485 15.2638 149.485 13.7484C149.485 12.2329 148.218 11 146.66 11C145.296 11 144.155 11.946 143.892 13.1987H135.361V20.3444V42.3313H168.128V20.3444V13.1987H159.597ZM166.998 41.232H136.491V20.3444H166.998V41.232Z" fill="white"/>
<path d="M150.05 12.0993C150.984 12.0993 151.745 12.8392 151.745 13.7484C151.745 14.6575 150.984 15.3974 150.05 15.3974C149.738 15.3974 149.485 15.6431 149.485 15.947C149.485 16.251 149.738 16.4967 150.05 16.4967C151.607 16.4967 152.874 15.2638 152.874 13.7484C152.874 12.2329 151.607 11 150.05 11C149.738 11 149.485 11.2457 149.485 11.5497C149.485 11.8536 149.738 12.0993 150.05 12.0993Z" fill="white"/>
<path d="M153.439 12.0993C154.374 12.0993 155.134 12.8392 155.134 13.7484C155.134 14.6575 154.374 15.3974 153.439 15.3974C153.128 15.3974 152.874 15.6431 152.874 15.947C152.874 16.251 153.128 16.4967 153.439 16.4967C154.997 16.4967 156.264 15.2638 156.264 13.7484C156.264 12.2329 154.997 11 153.439 11C153.128 11 152.874 11.2457 152.874 11.5497C152.874 11.8536 153.128 12.0993 153.439 12.0993Z" fill="white"/>
<path d="M140.446 24.7416H152.874C153.186 24.7416 153.439 24.4959 153.439 24.1919C153.439 23.8879 153.186 23.6422 152.874 23.6422H140.446C140.134 23.6422 139.881 23.8879 139.881 24.1919C139.881 24.4959 140.134 24.7416 140.446 24.7416Z" fill="white"/>
<path d="M163.043 32.4372H154.569C154.257 32.4372 154.004 32.6829 154.004 32.9869C154.004 33.2909 154.257 33.5366 154.569 33.5366H163.043C163.355 33.5366 163.608 33.2909 163.608 32.9869C163.608 32.6829 163.355 32.4372 163.043 32.4372Z" fill="white"/>
<path d="M140.446 29.1395H146.095C146.407 29.1395 146.66 28.8938 146.66 28.5898C146.66 28.2859 146.407 28.0402 146.095 28.0402H140.446C140.134 28.0402 139.881 28.2859 139.881 28.5898C139.881 28.8938 140.134 29.1395 140.446 29.1395Z" fill="white"/>
<path d="M163.043 36.8347H157.394C157.082 36.8347 156.829 37.0804 156.829 37.3844C156.829 37.6884 157.082 37.9341 157.394 37.9341H163.043C163.355 37.9341 163.608 37.6884 163.608 37.3844C163.608 37.0804 163.355 36.8347 163.043 36.8347Z" fill="white"/>
<path d="M151.18 28.5898C151.18 28.8938 151.433 29.1395 151.745 29.1395H160.219C160.531 29.1395 160.784 28.8938 160.784 28.5898C160.784 28.2859 160.531 28.0402 160.219 28.0402H151.745C151.433 28.0402 151.18 28.2859 151.18 28.5898Z" fill="white"/>
<path d="M149.321 28.9799C149.423 28.8755 149.485 28.7326 149.485 28.5896C149.485 28.4462 149.423 28.3033 149.321 28.1994C149.112 27.996 148.728 27.996 148.519 28.1994C148.417 28.3033 148.355 28.4462 148.355 28.5896C148.355 28.7326 148.417 28.8755 148.519 28.9799C148.626 29.0838 148.773 29.1393 148.92 29.1393C149.067 29.1393 149.214 29.0838 149.321 28.9799Z" fill="white"/>
<path d="M142.706 32.9869C142.706 33.2909 142.959 33.5366 143.27 33.5366H151.745C152.056 33.5366 152.31 33.2909 152.31 32.9869C152.31 32.6829 152.056 32.4372 151.745 32.4372H143.27C142.959 32.4372 142.706 32.6829 142.706 32.9869Z" fill="white"/>
<path d="M140.446 33.5366C140.593 33.5366 140.74 33.4761 140.847 33.3771C140.949 33.2727 141.011 33.1298 141.011 32.9869C141.011 32.8434 140.949 32.7005 140.847 32.6021C140.638 32.3932 140.254 32.3932 140.045 32.5966C139.943 32.7005 139.881 32.8434 139.881 32.9869C139.881 33.1298 139.943 33.2727 140.045 33.3771C140.152 33.4761 140.293 33.5366 140.446 33.5366Z" fill="white"/>
<path d="M163.043 29.1393C163.19 29.1393 163.337 29.0838 163.444 28.9799C163.552 28.8755 163.608 28.7326 163.608 28.5896C163.608 28.4462 163.552 28.3033 163.444 28.1994C163.23 27.996 162.851 27.996 162.642 28.1994C162.541 28.3033 162.478 28.4462 162.478 28.5896C162.478 28.7326 162.541 28.8755 162.642 28.9799C162.75 29.0838 162.896 29.1393 163.043 29.1393Z" fill="white"/>
<path d="M154.569 36.8347H140.446C140.134 36.8347 139.881 37.0804 139.881 37.3844C139.881 37.6884 140.134 37.9341 140.446 37.9341H154.569C154.881 37.9341 155.134 37.6884 155.134 37.3844C155.134 37.0804 154.881 36.8347 154.569 36.8347Z" fill="white"/>
</svg>
