<svg width="265" height="55" viewBox="0 0 265 55" fill="none" xmlns="http://www.w3.org/2000/svg">
<path d="M52.0973 33.0703V32.8153L53.2873 32.4753V29.9253H48.4423L48.1023 29.4153L54.4773 21.0003H56.0923V29.1603H57.8773V29.9253H56.0923V32.4753L57.2823 32.8153V33.0703H52.0973ZM49.0373 29.1603H53.2873V23.5503L49.0373 29.1603ZM63.6586 33.3253C62.7406 33.3253 61.9076 33.0816 61.1596 32.5943C60.4116 32.107 59.8166 31.3986 59.3746 30.4693C58.944 29.5286 58.7286 28.4123 58.7286 27.1203C58.7286 25.8283 58.944 24.7176 59.3746 23.7883C59.8166 22.8476 60.4116 22.1336 61.1596 21.6463C61.9076 21.159 62.7406 20.9153 63.6586 20.9153C64.5766 20.9153 65.4096 21.159 66.1576 21.6463C66.9056 22.1336 67.495 22.8476 67.9256 23.7883C68.3676 24.7176 68.5886 25.8283 68.5886 27.1203C68.5886 28.4123 68.3676 29.5286 67.9256 30.4693C67.495 31.3986 66.9056 32.107 66.1576 32.5943C65.4096 33.0816 64.5766 33.3253 63.6586 33.3253ZM63.6586 32.9853C64.962 32.9853 65.6136 31.0303 65.6136 27.1203C65.6136 23.2103 64.962 21.2553 63.6586 21.2553C62.3553 21.2553 61.7036 23.2103 61.7036 27.1203C61.7036 31.0303 62.3553 32.9853 63.6586 32.9853ZM76.4969 23.2953V32.3053L77.8569 32.8153V33.0703H74.6269V32.8153L75.9869 32.3053V21.6803L74.9669 21.4253V21.1703H77.0919C77.6813 21.1703 78.1459 21.295 78.4859 21.5443C78.8373 21.7823 79.1376 22.1393 79.3869 22.6153L83.0929 29.7043L85.9319 22.6153C86.1246 22.1166 86.3853 21.754 86.7139 21.5273C87.0426 21.2893 87.5469 21.1703 88.2269 21.1703H90.0119V21.4253L88.9919 21.6803V32.5603L90.0119 32.8153V33.0703H85.1669V32.8153L86.1869 32.5603V23.2953L82.1919 33.2403H81.6819L76.4969 23.2953ZM91.3779 32.3053C91.3779 31.6366 91.5083 31.0303 91.7689 30.4863C92.0409 29.931 92.3696 29.4493 92.7549 29.0413C93.1403 28.6333 93.6446 28.1516 94.2679 27.5963C94.8459 27.0863 95.2993 26.6613 95.6279 26.3213C95.9566 25.97 96.2343 25.579 96.4609 25.1483C96.6876 24.7063 96.8009 24.2303 96.8009 23.7203C96.8009 22.9723 96.6196 22.3886 96.2569 21.9693C95.8943 21.55 95.4239 21.3403 94.8459 21.3403C94.5173 21.3403 94.1829 21.3856 93.8429 21.4763L93.4859 21.5953V24.3153L93.2649 24.3663C93.0836 24.389 92.9306 24.4003 92.8059 24.4003C92.4206 24.4003 92.1089 24.287 91.8709 24.0603C91.6443 23.8223 91.5309 23.5106 91.5309 23.1253C91.5309 22.7626 91.6669 22.4113 91.9389 22.0713C92.2223 21.7313 92.6359 21.4536 93.1799 21.2383C93.7353 21.023 94.4039 20.9153 95.1859 20.9153C96.7159 20.9153 97.8493 21.2213 98.5859 21.8333C99.3226 22.4453 99.6909 23.301 99.6909 24.4003C99.6909 25.0916 99.5096 25.6866 99.1469 26.1853C98.7956 26.684 98.3593 27.0976 97.8379 27.4263C97.3279 27.755 96.6423 28.129 95.7809 28.5483C95.0556 28.8996 94.4663 29.2113 94.0129 29.4833C93.5709 29.744 93.1573 30.0613 92.7719 30.4353C92.3979 30.8093 92.1316 31.2343 91.9729 31.7103H98.2629C98.3423 31.0983 98.5349 30.5883 98.8409 30.1803C98.9656 29.9876 99.1129 29.8176 99.2829 29.6703H99.7929V33.0703H91.3779V32.3053Z" fill="white"/>
<path fill-rule="evenodd" clip-rule="evenodd" d="M3.25029 11.3819C3.25029 11.171 3.42852 11 3.64838 11H32.3115C32.5313 11 32.7096 11.171 32.7096 11.3819V39.0039C32.7096 39.2148 32.5313 39.3858 32.3115 39.3858C32.0916 39.3858 31.9134 39.2148 31.9134 39.0039V11.7637H3.64838C3.42852 11.7637 3.25029 11.5928 3.25029 11.3819Z" fill="white" stroke="white" stroke-width="0.5" stroke-linecap="round" stroke-linejoin="round"/>
<path d="M1.12729 17.3044L2.75316 15.6786L2.75316 39.4373L2.75316 39.5623L2.87816 39.5623L3.66808 39.5623L3.79308 39.5623L3.79308 39.4373L3.79308 15.6786L5.41895 17.3044C5.622 17.5075 5.95122 17.5075 6.15428 17.3044C6.35733 17.1014 6.35734 16.7722 6.15428 16.5691L3.64078 14.0556C3.43773 13.8525 3.10851 13.8525 2.90545 14.0556L0.391957 16.5691C0.188901 16.7722 0.188901 17.1014 0.391957 17.3044C0.595013 17.5075 0.924232 17.5075 1.12729 17.3044Z" fill="white" stroke="white" stroke-width="0.25"/>
<path d="M25.1262 37.2909L26.7603 38.9165L2.87719 38.9165H2.75219V39.0415V39.8315V39.9565H2.87719L26.7603 39.9565L25.1262 41.5821C24.922 41.7852 24.922 42.1148 25.1262 42.3179C25.33 42.5206 25.6601 42.5206 25.864 42.3179L28.3906 39.8044C28.5947 39.6013 28.5947 39.2717 28.3906 39.0686L25.864 36.5551C25.6601 36.3524 25.33 36.3524 25.1262 36.5551C24.922 36.7582 24.922 37.0878 25.1262 37.2909Z" fill="white" stroke="white" stroke-width="0.25"/>
<path fill-rule="evenodd" clip-rule="evenodd" d="M14.1625 11.1157C14.3167 11.2699 14.3167 11.52 14.1625 11.6742L9.42298 16.4137C9.26873 16.568 9.01866 16.568 8.86442 16.4137C8.71018 16.2595 8.71018 16.0094 8.86442 15.8552L13.6039 11.1157C13.7582 10.9614 14.0082 10.9614 14.1625 11.1157Z" fill="white" stroke="white" stroke-width="0.5" stroke-linecap="round" stroke-linejoin="round"/>
<path fill-rule="evenodd" clip-rule="evenodd" d="M32.4622 29.9424C32.6165 30.0966 32.6165 30.3467 32.4622 30.5009L28.1177 34.8454C27.9635 34.9997 27.7134 34.9997 27.5592 34.8454C27.4049 34.6912 27.4049 34.4411 27.5592 34.2869L31.9037 29.9424C32.0579 29.7881 32.308 29.7881 32.4622 29.9424Z" fill="white" stroke="white" stroke-width="0.5" stroke-linecap="round" stroke-linejoin="round"/>
<path fill-rule="evenodd" clip-rule="evenodd" d="M20.0851 11.1139C20.2403 11.2672 20.2419 11.5172 20.0886 11.6725L9.81974 22.073C9.66649 22.2282 9.41642 22.2298 9.2612 22.0766C9.10598 21.9233 9.10439 21.6732 9.25764 21.518L19.5265 11.1175C19.6798 10.9622 19.9299 10.9607 20.0851 11.1139Z" fill="white" stroke="white" stroke-width="0.5" stroke-linecap="round" stroke-linejoin="round"/>
<path fill-rule="evenodd" clip-rule="evenodd" d="M32.5938 23.3591C32.7481 23.5134 32.7481 23.7634 32.5938 23.9177L22.5882 33.9233C22.434 34.0775 22.1839 34.0775 22.0297 33.9233C21.8755 33.769 21.8755 33.519 22.0297 33.3647L32.0353 23.3591C32.1895 23.2049 32.4396 23.2049 32.5938 23.3591Z" fill="white" stroke="white" stroke-width="0.5" stroke-linecap="round" stroke-linejoin="round"/>
<path fill-rule="evenodd" clip-rule="evenodd" d="M26.4084 11.2496C26.5614 11.4051 26.5594 11.6552 26.4039 11.8081L9.94737 28.0014C9.79189 28.1544 9.54183 28.1524 9.38884 27.9969C9.23584 27.8414 9.23786 27.5914 9.39334 27.4384L25.8499 11.2451C26.0054 11.0921 26.2555 11.0941 26.4084 11.2496Z" fill="white" stroke="white" stroke-width="0.5" stroke-linecap="round" stroke-linejoin="round"/>
<path fill-rule="evenodd" clip-rule="evenodd" d="M32.5939 17.1718C32.7482 17.326 32.7482 17.5761 32.5939 17.7304L16.0057 34.3186C15.8515 34.4728 15.6014 34.4728 15.4471 34.3186C15.2929 34.1643 15.2929 33.9143 15.4471 33.76L32.0354 17.1718C32.1896 17.0176 32.4397 17.0176 32.5939 17.1718Z" fill="white" stroke="white" stroke-width="0.5" stroke-linecap="round" stroke-linejoin="round"/>
<path fill-rule="evenodd" clip-rule="evenodd" d="M32.3306 11.2473C32.4848 11.4016 32.4848 11.6517 32.3306 11.8059L9.68636 34.4501C9.53212 34.6044 9.28205 34.6044 9.12781 34.4501C8.97356 34.2959 8.97356 34.0458 9.12781 33.8916L31.772 11.2473C31.9263 11.0931 32.1764 11.0931 32.3306 11.2473Z" fill="white" stroke="white" stroke-width="0.5" stroke-linecap="round" stroke-linejoin="round"/>
<path d="M187.146 33.1387V32.8837L188.336 32.5437V29.9937H183.491L183.151 29.4837L189.526 21.0687H191.141V29.2287H192.926V29.9937H191.141V32.5437L192.331 32.8837V33.1387H187.146ZM184.086 29.2287H188.336V23.6187L184.086 29.2287ZM198.691 33.3937C197.263 33.3937 196.181 33.1103 195.444 32.5437C194.719 31.977 194.356 31.2403 194.356 30.3337C194.356 29.7103 194.628 29.1097 195.172 28.5317C195.716 27.9423 196.379 27.523 197.161 27.2737C196.413 26.8543 195.841 26.3953 195.444 25.8967C195.059 25.3867 194.866 24.769 194.866 24.0437C194.866 23.137 195.229 22.4003 195.954 21.8337C196.691 21.267 197.773 20.9837 199.201 20.9837C199.915 20.9837 200.538 21.114 201.071 21.3747C201.615 21.6353 202.034 21.9753 202.329 22.3947C202.624 22.814 202.771 23.2503 202.771 23.7037C202.771 24.2363 202.539 24.752 202.074 25.2507C201.621 25.7493 201.088 26.0837 200.476 26.2537C201.507 26.707 202.289 27.2453 202.822 27.8687C203.355 28.492 203.621 29.257 203.621 30.1637C203.621 30.753 203.44 31.2913 203.077 31.7787C202.714 32.266 202.165 32.657 201.428 32.9517C200.691 33.2463 199.779 33.3937 198.691 33.3937ZM199.966 25.9137C200.397 25.721 200.742 25.4433 201.003 25.0807C201.275 24.718 201.411 24.259 201.411 23.7037C201.411 23.2957 201.309 22.916 201.105 22.5647C200.912 22.2133 200.657 21.9357 200.34 21.7317C200.034 21.5163 199.711 21.4087 199.371 21.4087C198.884 21.4087 198.476 21.6013 198.147 21.9867C197.83 22.3607 197.671 22.8763 197.671 23.5337C197.671 24.4403 198.436 25.2337 199.966 25.9137ZM198.521 32.9687C199.246 32.9687 199.807 32.7703 200.204 32.3737C200.612 31.9657 200.816 31.399 200.816 30.6737C200.816 30.1297 200.544 29.58 200 29.0247C199.456 28.4693 198.736 27.999 197.841 27.6137C197.206 27.8403 196.708 28.1803 196.345 28.6337C195.982 29.0757 195.801 29.6423 195.801 30.3337C195.801 30.8097 195.92 31.2517 196.158 31.6597C196.407 32.0563 196.736 32.3737 197.144 32.6117C197.563 32.8497 198.022 32.9687 198.521 32.9687ZM209.75 32.8837L210.77 32.6287V21.7487L209.75 21.4937V21.2387H214.085C216.113 21.2387 217.666 21.76 218.743 22.8027C219.831 23.8453 220.375 25.3073 220.375 27.1887C220.375 29.07 219.831 30.532 218.743 31.5747C217.666 32.6173 216.113 33.1387 214.085 33.1387H209.75V32.8837ZM214.085 32.7137C215.139 32.7137 215.955 32.2887 216.533 31.4387C217.111 30.5773 217.4 29.1607 217.4 27.1887C217.4 25.2167 217.111 23.8057 216.533 22.9557C215.955 22.0943 215.139 21.6637 214.085 21.6637H213.575V32.7137H214.085ZM220.197 32.8837L221.557 32.3737L226.232 21.0687H226.742L231.587 32.6287L232.437 32.8837V33.1387H230.397C229.808 33.1387 229.326 33.0083 228.952 32.7477C228.578 32.4757 228.301 32.1243 228.119 31.6937L227.252 29.6537H223.189L222.067 32.3737L223.342 32.8837V33.1387H220.197V32.8837ZM223.359 29.2287H227.082L225.212 24.7577L223.359 29.2287ZM234.212 32.8837L235.232 32.6287V28.7187L231.747 21.7487L230.897 21.4937V21.2387H233.022C233.611 21.2387 234.081 21.3633 234.433 21.6127C234.795 21.862 235.09 22.219 235.317 22.6837L237.833 27.6987L240.417 22.0037L239.142 21.4937V21.2387H242.372V21.4937L241.012 22.0037L238.037 28.5487V32.6287L239.057 32.8837V33.1387H234.212V32.8837ZM246.703 33.3937C245.898 33.3937 245.144 33.2123 244.442 32.8497C244.124 32.691 243.858 32.504 243.643 32.2887C243.484 32.5493 243.286 32.7817 243.048 32.9857C242.844 33.133 242.73 33.2123 242.708 33.2237H242.283V29.9937H242.963C243.133 30.549 243.371 31.0477 243.677 31.4897C244.368 32.4757 245.263 32.9687 246.363 32.9687C247.009 32.9687 247.524 32.776 247.91 32.3907C248.295 32.0053 248.488 31.4897 248.488 30.8437C248.488 30.4697 248.374 30.1353 248.148 29.8407C247.932 29.546 247.66 29.2853 247.332 29.0587C247.003 28.832 246.544 28.5487 245.955 28.2087C245.207 27.7893 244.6 27.4097 244.136 27.0697C243.671 26.7297 243.274 26.3047 242.946 25.7947C242.617 25.2733 242.453 24.6613 242.453 23.9587C242.453 23.4033 242.606 22.9047 242.912 22.4627C243.229 22.0093 243.699 21.6523 244.323 21.3917C244.946 21.1197 245.711 20.9837 246.618 20.9837C247.275 20.9837 247.932 21.1707 248.59 21.5447C248.839 21.6807 249.088 21.862 249.338 22.0887C249.53 21.794 249.729 21.5617 249.933 21.3917C250.137 21.2443 250.25 21.165 250.273 21.1537H250.698V24.3837H250.018C249.87 23.8397 249.649 23.3467 249.355 22.9047C249.083 22.474 248.743 22.117 248.335 21.8337C247.938 21.5503 247.479 21.4087 246.958 21.4087C246.516 21.4087 246.136 21.5843 245.819 21.9357C245.501 22.287 245.343 22.7347 245.343 23.2787C245.343 23.698 245.462 24.0777 245.7 24.4177C245.949 24.7463 246.249 25.0353 246.601 25.2847C246.963 25.534 247.451 25.8343 248.063 26.1857C248.777 26.5937 249.355 26.9563 249.797 27.2737C250.239 27.591 250.613 27.9877 250.919 28.4637C251.225 28.9283 251.378 29.4667 251.378 30.0787C251.378 30.6907 251.202 31.2517 250.851 31.7617C250.499 32.2603 249.972 32.657 249.27 32.9517C248.567 33.2463 247.711 33.3937 246.703 33.3937Z" fill="white"/>
<path d="M118.09 54.035L118.09 0" stroke="white" stroke-width="0.75"/>
<path d="M159.6 13.1997C159.337 11.9464 158.196 11 156.831 11C156.519 11 156.266 11.2458 156.266 11.5499C156.266 11.854 156.519 12.0998 156.831 12.0998C157.766 12.0998 158.527 12.84 158.527 13.7496C158.527 14.6591 157.766 15.3993 156.831 15.3993C156.519 15.3993 156.266 15.6451 156.266 15.9492C156.266 16.2533 156.519 16.4992 156.831 16.4992C158.196 16.4992 159.337 15.5528 159.6 14.2995H167.005V19.2487H136.484V14.2995H144.397H146.093C146.405 14.2995 146.658 14.0537 146.658 13.7496C146.658 13.4455 146.405 13.1997 146.093 13.1997H145.066C145.3 12.5607 145.922 12.0998 146.658 12.0998C147.593 12.0998 148.353 12.84 148.353 13.7496C148.353 14.6591 147.593 15.3993 146.658 15.3993C146.346 15.3993 146.093 15.6451 146.093 15.9492C146.093 16.2533 146.346 16.4992 146.658 16.4992C148.216 16.4992 149.484 15.2657 149.484 13.7496C149.484 12.2335 148.216 11 146.658 11C145.293 11 144.152 11.9464 143.889 13.1997H135.354V20.3486V42.3452H168.135V20.3486V13.1997H159.6ZM167.005 41.2454H136.484V20.3486H167.005V41.2454Z" fill="white"/>
<path d="M150.049 12.0998C150.984 12.0998 151.745 12.84 151.745 13.7496C151.745 14.6591 150.984 15.3993 150.049 15.3993C149.737 15.3993 149.484 15.6451 149.484 15.9492C149.484 16.2533 149.737 16.4992 150.049 16.4992C151.607 16.4992 152.875 15.2657 152.875 13.7496C152.875 12.2335 151.607 11 150.049 11C149.737 11 149.484 11.2458 149.484 11.5499C149.484 11.854 149.737 12.0998 150.049 12.0998Z" fill="white"/>
<path d="M153.44 12.0998C154.375 12.0998 155.136 12.84 155.136 13.7496C155.136 14.6591 154.375 15.3993 153.44 15.3993C153.128 15.3993 152.875 15.6451 152.875 15.9492C152.875 16.2533 153.128 16.4992 153.44 16.4992C154.998 16.4992 156.266 15.2657 156.266 13.7496C156.266 12.2335 154.998 11 153.44 11C153.128 11 152.875 11.2458 152.875 11.5499C152.875 11.854 153.128 12.0998 153.44 12.0998Z" fill="white"/>
<path d="M140.441 24.7475H152.875C153.187 24.7475 153.44 24.5017 153.44 24.1976C153.44 23.8935 153.187 23.6477 152.875 23.6477H140.441C140.129 23.6477 139.876 23.8935 139.876 24.1976C139.876 24.5017 140.129 24.7475 140.441 24.7475Z" fill="white"/>
<path d="M163.048 32.4466H154.571C154.259 32.4466 154.005 32.6925 154.005 32.9966C154.005 33.3007 154.259 33.5465 154.571 33.5465H163.048C163.36 33.5465 163.614 33.3007 163.614 32.9966C163.614 32.6925 163.36 32.4466 163.048 32.4466Z" fill="white"/>
<path d="M140.441 29.1472H146.093C146.405 29.1472 146.658 28.9014 146.658 28.5973C146.658 28.2932 146.405 28.0474 146.093 28.0474H140.441C140.129 28.0474 139.876 28.2932 139.876 28.5973C139.876 28.9014 140.129 29.1472 140.441 29.1472Z" fill="white"/>
<path d="M163.048 36.8459H157.397C157.085 36.8459 156.831 37.0917 156.831 37.3958C156.831 37.6999 157.085 37.9457 157.397 37.9457H163.048C163.36 37.9457 163.614 37.6999 163.614 37.3958C163.614 37.0917 163.36 36.8459 163.048 36.8459Z" fill="white"/>
<path d="M151.179 28.5973C151.179 28.9014 151.433 29.1472 151.745 29.1472H160.222C160.534 29.1472 160.788 28.9014 160.788 28.5973C160.788 28.2932 160.534 28.0474 160.222 28.0474H151.745C151.433 28.0474 151.179 28.2932 151.179 28.5973Z" fill="white"/>
<path d="M149.32 28.988C149.422 28.8835 149.484 28.7405 149.484 28.5976C149.484 28.454 149.422 28.311 149.32 28.2071C149.111 28.0036 148.727 28.0036 148.517 28.2071C148.416 28.311 148.354 28.454 148.354 28.5976C148.354 28.7405 148.416 28.8835 148.517 28.988C148.625 29.0919 148.772 29.1475 148.919 29.1475C149.066 29.1475 149.213 29.0919 149.32 28.988Z" fill="white"/>
<path d="M142.702 32.9966C142.702 33.3007 142.955 33.5465 143.267 33.5465H151.745C152.057 33.5465 152.31 33.3007 152.31 32.9966C152.31 32.6925 152.057 32.4466 151.745 32.4466H143.267C142.955 32.4466 142.702 32.6925 142.702 32.9966Z" fill="white"/>
<path d="M140.441 33.5469C140.588 33.5469 140.735 33.4865 140.842 33.3875C140.944 33.283 141.006 33.14 141.006 32.997C141.006 32.8535 140.944 32.7105 140.842 32.6121C140.633 32.4031 140.249 32.4031 140.04 32.6066C139.938 32.7105 139.876 32.8535 139.876 32.997C139.876 33.14 139.938 33.283 140.04 33.3875C140.147 33.4865 140.288 33.5469 140.441 33.5469Z" fill="white"/>
<path d="M163.048 29.1475C163.195 29.1475 163.342 29.0919 163.45 28.988C163.557 28.8835 163.614 28.7405 163.614 28.5976C163.614 28.454 163.557 28.311 163.45 28.2071C163.235 28.0036 162.856 28.0036 162.647 28.2071C162.545 28.311 162.483 28.454 162.483 28.5976C162.483 28.7405 162.545 28.8835 162.647 28.988C162.755 29.0919 162.902 29.1475 163.048 29.1475Z" fill="white"/>
<path d="M154.571 36.8459H140.441C140.129 36.8459 139.876 37.0917 139.876 37.3958C139.876 37.6999 140.129 37.9457 140.441 37.9457H154.571C154.883 37.9457 155.136 37.6999 155.136 37.3958C155.136 37.0917 154.883 36.8459 154.571 36.8459Z" fill="white"/>
</svg>
